<?xml version="1.0" standalone="no"?><!DOCTYPE svg PUBLIC "-//W3C//DTD SVG 1.1//EN" "http://www.w3.org/Graphics/SVG/1.1/DTD/svg11.dtd"><svg xmlns:xlink="http://www.w3.org/1999/xlink" version="1.1" style="font-family:'unica one', sans-serif;font-size:12px;" xmlns="http://www.w3.org/2000/svg" width="600" height="400"><desc>Created with Highcharts 4.2.0</desc><defs><linearGradient x1="0" y1="0" x2="1" y2="1" id="highcharts-214"><stop offset="0" stop-color="#2a2a2b" stop-opacity="1"></stop><stop offset="1" stop-color="#3e3e40" stop-opacity="1"></stop></linearGradient><clipPath id="highcharts-215"><rect x="0" y="0" width="548" height="285"></rect></clipPath></defs><rect x="0" y="0" width="600" height="400" strokeWidth="0" fill="url(#highcharts-214)" class=" highcharts-background"></rect><g class="highcharts-grid" ></g><g class="highcharts-grid" ><path fill="none" d="M 42 334.5 L 590 334.5" stroke="#707073" stroke-width="1"  opacity="1"></path><path fill="none" d="M 42 287.5 L 590 287.5" stroke="#707073" stroke-width="1"  opacity="1"></path><path fill="none" d="M 42 239.5 L 590 239.5" stroke="#707073" stroke-width="1"  opacity="1"></path><path fill="none" d="M 42 192.5 L 590 192.5" stroke="#707073" stroke-width="1"  opacity="1"></path><path fill="none" d="M 42 144.5 L 590 144.5" stroke="#707073" stroke-width="1"  opacity="1"></path><path fill="none" d="M 42 97.5 L 590 97.5" stroke="#707073" stroke-width="1"  opacity="1"></path><path fill="none" d="M 42 48.5 L 590 48.5" stroke="#707073" stroke-width="1"  opacity="1"></path></g><g class="highcharts-axis" ><path fill="none" d="M 590.5 334 L 590.5 344" stroke="#707073" stroke-width="1" opacity="1"></path><path fill="none" d="M 41.5 334 L 41.5 344" stroke="#707073" stroke-width="1" opacity="1"></path><path fill="none" d="M 42 334.5 L 590 334.5" stroke="#707073" stroke-width="1" ></path></g><g class="highcharts-axis" ><path fill="none" d="M 42 334.5 L 32 334.5" stroke="#707073" stroke-width="1" opacity="1"></path><path fill="none" d="M 42 287.5 L 32 287.5" stroke="#707073" stroke-width="1" opacity="1"></path><path fill="none" d="M 42 239.5 L 32 239.5" stroke="#707073" stroke-width="1" opacity="1"></path><path fill="none" d="M 42 192.5 L 32 192.5" stroke="#707073" stroke-width="1" opacity="1"></path><path fill="none" d="M 42 144.5 L 32 144.5" stroke="#707073" stroke-width="1" opacity="1"></path><path fill="none" d="M 42 97.5 L 32 97.5" stroke="#707073" stroke-width="1" opacity="1"></path><path fill="none" d="M 42 48.5 L 32 48.5" stroke="#707073" stroke-width="1" opacity="1"></path></g><g class="highcharts-series-group" ><g class="highcharts-series highcharts-series-0"  transform="translate(42,49) scale(1 1)" clip-path="url(#highcharts-215)"><rect x="113.5" y="69.5" width="33" height="216" stroke="black" stroke-width="5" fill="none" rx="0" ry="0"  stroke-opacity="0.049999999999999996" transform="translate(1, 1)"></rect><rect x="113.5" y="69.5" width="33" height="216" stroke="black" stroke-width="3" fill="none" rx="0" ry="0"  stroke-opacity="0.09999999999999999" transform="translate(1, 1)"></rect><rect x="113.5" y="69.5" width="33" height="216" stroke="black" stroke-width="1" fill="none" rx="0" ry="0"  stroke-opacity="0.15" transform="translate(1, 1)"></rect><rect x="113.5" y="69.5" width="33" height="216" stroke="#FFFFFF" stroke-width="1" fill="#50B432" rx="0" ry="0"></rect></g><g class="highcharts-markers highcharts-series-0"  transform="translate(42,49) scale(1 1)" clip-path="none"></g><g class="highcharts-series highcharts-series-1"  transform="translate(42,49) scale(1 1)" clip-path="url(#highcharts-215)"><rect x="154.5" y="52.5" width="33" height="233" stroke="black" stroke-width="5" fill="none" rx="0" ry="0"  stroke-opacity="0.049999999999999996" transform="translate(1, 1)"></rect><rect x="154.5" y="52.5" width="33" height="233" stroke="black" stroke-width="3" fill="none" rx="0" ry="0"  stroke-opacity="0.09999999999999999" transform="translate(1, 1)"></rect><rect x="154.5" y="52.5" width="33" height="233" stroke="black" stroke-width="1" fill="none" rx="0" ry="0"  stroke-opacity="0.15" transform="translate(1, 1)"></rect><rect x="154.5" y="52.5" width="33" height="233" stroke="#FFFFFF" stroke-width="1" fill="#ED561B" rx="0" ry="0"></rect></g><g class="highcharts-markers highcharts-series-1"  transform="translate(42,49) scale(1 1)" clip-path="none"></g><g class="highcharts-series highcharts-series-2"  transform="translate(42,49) scale(1 1)" clip-path="url(#highcharts-215)"><rect x="195.5" y="71.5" width="33" height="214" stroke="black" stroke-width="5" fill="none" rx="0" ry="0"  stroke-opacity="0.049999999999999996" transform="translate(1, 1)"></rect><rect x="195.5" y="71.5" width="33" height="214" stroke="black" stroke-width="3" fill="none" rx="0" ry="0"  stroke-opacity="0.09999999999999999" transform="translate(1, 1)"></rect><rect x="195.5" y="71.5" width="33" height="214" stroke="black" stroke-width="1" fill="none" rx="0" ry="0"  stroke-opacity="0.15" transform="translate(1, 1)"></rect><rect x="195.5" y="71.5" width="33" height="214" stroke="#FFFFFF" stroke-width="1" fill="#DDDF00" rx="0" ry="0"></rect></g><g class="highcharts-markers highcharts-series-2"  transform="translate(42,49) scale(1 1)" clip-path="none"></g><g class="highcharts-series highcharts-series-3"  transform="translate(42,49) scale(1 1)" clip-path="url(#highcharts-215)"><rect x="236.5" y="50.5" width="33" height="235" stroke="black" stroke-width="5" fill="none" rx="0" ry="0"  stroke-opacity="0.049999999999999996" transform="translate(1, 1)"></rect><rect x="236.5" y="50.5" width="33" height="235" stroke="black" stroke-width="3" fill="none" rx="0" ry="0"  stroke-opacity="0.09999999999999999" transform="translate(1, 1)"></rect><rect x="236.5" y="50.5" width="33" height="235" stroke="black" stroke-width="1" fill="none" rx="0" ry="0"  stroke-opacity="0.15" transform="translate(1, 1)"></rect><rect x="236.5" y="50.5" width="33" height="235" stroke="#FFFFFF" stroke-width="1" fill="#24CBE5" rx="0" ry="0"></rect></g><g class="highcharts-markers highcharts-series-3"  transform="translate(42,49) scale(1 1)" clip-path="none"></g><g class="highcharts-series highcharts-series-4"  transform="translate(42,49) scale(1 1)" clip-path="url(#highcharts-215)"><rect x="277.5" y="50.5" width="33" height="235" stroke="black" stroke-width="5" fill="none" rx="0" ry="0"  stroke-opacity="0.049999999999999996" transform="translate(1, 1)"></rect><rect x="277.5" y="50.5" width="33" height="235" stroke="black" stroke-width="3" fill="none" rx="0" ry="0"  stroke-opacity="0.09999999999999999" transform="translate(1, 1)"></rect><rect x="277.5" y="50.5" width="33" height="235" stroke="black" stroke-width="1" fill="none" rx="0" ry="0"  stroke-opacity="0.15" transform="translate(1, 1)"></rect><rect x="277.5" y="50.5" width="33" height="235" stroke="#FFFFFF" stroke-width="1" fill="#64E572" rx="0" ry="0"></rect></g><g class="highcharts-markers highcharts-series-4"  transform="translate(42,49) scale(1 1)" clip-path="none"></g><g class="highcharts-series highcharts-series-5"  transform="translate(42,49) scale(1 1)" clip-path="url(#highcharts-215)"><rect x="318.5" y="50.5" width="33" height="235" stroke="black" stroke-width="5" fill="none" rx="0" ry="0"  stroke-opacity="0.049999999999999996" transform="translate(1, 1)"></rect><rect x="318.5" y="50.5" width="33" height="235" stroke="black" stroke-width="3" fill="none" rx="0" ry="0"  stroke-opacity="0.09999999999999999" transform="translate(1, 1)"></rect><rect x="318.5" y="50.5" width="33" height="235" stroke="black" stroke-width="1" fill="none" rx="0" ry="0"  stroke-opacity="0.15" transform="translate(1, 1)"></rect><rect x="318.5" y="50.5" width="33" height="235" stroke="#FFFFFF" stroke-width="1" fill="#FF9655" rx="0" ry="0"></rect></g><g class="highcharts-markers highcharts-series-5"  transform="translate(42,49) scale(1 1)" clip-path="none"></g><g class="highcharts-series highcharts-series-6"  transform="translate(42,49) scale(1 1)" clip-path="url(#highcharts-215)"><rect x="359.5" y="71.5" width="33" height="214" stroke="black" stroke-width="5" fill="none" rx="0" ry="0"  stroke-opacity="0.049999999999999996" transform="translate(1, 1)"></rect><rect x="359.5" y="71.5" width="33" height="214" stroke="black" stroke-width="3" fill="none" rx="0" ry="0"  stroke-opacity="0.09999999999999999" transform="translate(1, 1)"></rect><rect x="359.5" y="71.5" width="33" height="214" stroke="black" stroke-width="1" fill="none" rx="0" ry="0"  stroke-opacity="0.15" transform="translate(1, 1)"></rect><rect x="359.5" y="71.5" width="33" height="214" stroke="#FFFFFF" stroke-width="1" fill="#FFF263" rx="0" ry="0"></rect></g><g class="highcharts-markers highcharts-series-6"  transform="translate(42,49) scale(1 1)" clip-path="none"></g><g class="highcharts-series highcharts-series-7"  transform="translate(42,49) scale(1 1)" clip-path="url(#highcharts-215)"><rect x="400.5" y="119.5" width="33" height="166" stroke="black" stroke-width="5" fill="none" rx="0" ry="0"  stroke-opacity="0.049999999999999996" transform="translate(1, 1)"></rect><rect x="400.5" y="119.5" width="33" height="166" stroke="black" stroke-width="3" fill="none" rx="0" ry="0"  stroke-opacity="0.09999999999999999" transform="translate(1, 1)"></rect><rect x="400.5" y="119.5" width="33" height="166" stroke="black" stroke-width="1" fill="none" rx="0" ry="0"  stroke-opacity="0.15" transform="translate(1, 1)"></rect><rect x="400.5" y="119.5" width="33" height="166" stroke="#FFFFFF" stroke-width="1" fill="#6AF9C4" rx="0" ry="0"></rect></g><g class="highcharts-markers highcharts-series-7"  transform="translate(42,49) scale(1 1)" clip-path="none"></g></g><text x="300" text-anchor="middle" class="highcharts-title"  style="color:#e0e0e3;font-size:20px;font-family:'unica one', sans-serif;text-transform:uppercase;font-weight:normal;fill:#e0e0e3;width:536px;" y="25"><tspan>TECH SKILLS</tspan></text><g class="highcharts-data-labels highcharts-series-0"  visibility="visible" transform="translate(42,49) scale(1 1)" opacity="1"><g  style="cursor:pointer;" transform="translate(119,49)"><text x="5"  style="font-size:10px;font-weight:bold;font-family:'arial', sans-serif;color:#b0b0b3;text-shadow:0 0 6px #000000, 0 0 3px #000000;fill:#b0b0b3;text-rendering:geometricprecision;" y="15"><tspan>91 </tspan></text></g></g><g class="highcharts-data-labels highcharts-series-1"  visibility="visible" transform="translate(42,49) scale(1 1)" opacity="1"><g  style="cursor:pointer;" transform="translate(160,32)"><text x="5"  style="font-size:10px;font-weight:bold;font-family:'arial', sans-serif;color:#b0b0b3;text-shadow:0 0 6px #000000, 0 0 3px #000000;fill:#b0b0b3;text-rendering:geometricprecision;" y="15"><tspan>98 </tspan></text></g></g><g class="highcharts-data-labels highcharts-series-2"  visibility="visible" transform="translate(42,49) scale(1 1)" opacity="1"><g  style="cursor:pointer;" transform="translate(201,51)"><text x="5"  style="font-size:10px;font-weight:bold;font-family:'arial', sans-serif;color:#b0b0b3;text-shadow:0 0 6px #000000, 0 0 3px #000000;fill:#b0b0b3;text-rendering:geometricprecision;" y="15"><tspan>90 </tspan></text></g></g><g class="highcharts-data-labels highcharts-series-3"  visibility="visible" transform="translate(42,49) scale(1 1)" opacity="1"><g  style="cursor:pointer;" transform="translate(242,30)"><text x="5"  style="font-size:10px;font-weight:bold;font-family:'arial', sans-serif;color:#b0b0b3;text-shadow:0 0 6px #000000, 0 0 3px #000000;fill:#b0b0b3;text-rendering:geometricprecision;" y="15"><tspan>99 </tspan></text></g></g><g class="highcharts-data-labels highcharts-series-4"  visibility="visible" transform="translate(42,49) scale(1 1)" opacity="1"><g  style="cursor:pointer;" transform="translate(283,30)"><text x="5"  style="font-size:10px;font-weight:bold;font-family:'arial', sans-serif;color:#b0b0b3;text-shadow:0 0 6px #000000, 0 0 3px #000000;fill:#b0b0b3;text-rendering:geometricprecision;" y="15"><tspan>99 </tspan></text></g></g><g class="highcharts-data-labels highcharts-series-5"  visibility="visible" transform="translate(42,49) scale(1 1)" opacity="1"><g  style="cursor:pointer;" transform="translate(324,30)"><text x="5"  style="font-size:10px;font-weight:bold;font-family:'arial', sans-serif;color:#b0b0b3;text-shadow:0 0 6px #000000, 0 0 3px #000000;fill:#b0b0b3;text-rendering:geometricprecision;" y="15"><tspan>99 </tspan></text></g></g><g class="highcharts-data-labels highcharts-series-6"  visibility="visible" transform="translate(42,49) scale(1 1)" opacity="1"><g  style="cursor:pointer;" transform="translate(365,51)"><text x="5"  style="font-size:10px;font-weight:bold;font-family:'arial', sans-serif;color:#b0b0b3;text-shadow:0 0 6px #000000, 0 0 3px #000000;fill:#b0b0b3;text-rendering:geometricprecision;" y="15"><tspan>90 </tspan></text></g></g><g class="highcharts-data-labels highcharts-series-7"  visibility="visible" transform="translate(42,49) scale(1 1)" opacity="1"><g  style="cursor:pointer;" transform="translate(406,99)"><text x="5"  style="font-size:10px;font-weight:bold;font-family:'arial', sans-serif;color:#b0b0b3;text-shadow:0 0 6px #000000, 0 0 3px #000000;fill:#b0b0b3;text-rendering:geometricprecision;" y="15"><tspan>70 </tspan></text></g></g><g class="highcharts-legend"  transform="translate(48,346)"><g ><g><g class="highcharts-legend-item"  transform="translate(8,3)"><text x="21" style="color:#e0e0e3;font-size:9pt;font-weight:bold;cursor:pointer;font-family:'unica one', sans-serif;text-transform:none;fill:#e0e0e3;" text-anchor="start"  y="15">PHP</text><rect x="0" y="4" width="16" height="12"  fill="#50B432"></rect></g><g class="highcharts-legend-item"  transform="translate(66.46875,3)"><text x="21" y="15" style="color:#e0e0e3;font-size:9pt;font-weight:bold;cursor:pointer;font-family:'unica one', sans-serif;text-transform:none;fill:#e0e0e3;" text-anchor="start" >MYSQL</text><rect x="0" y="4" width="16" height="12"  fill="#ED561B"></rect></g><g class="highcharts-legend-item"  transform="translate(137.09375,3)"><text x="21" y="15" style="color:#e0e0e3;font-size:9pt;font-weight:bold;cursor:pointer;font-family:'unica one', sans-serif;text-transform:none;fill:#e0e0e3;" text-anchor="start" >LARAVEL5</text><rect x="0" y="4" width="16" height="12"  fill="#DDDF00"></rect></g><g class="highcharts-legend-item"  transform="translate(221.5625,3)"><text x="21" y="15" style="color:#e0e0e3;font-size:9pt;font-weight:bold;cursor:pointer;font-family:'unica one', sans-serif;text-transform:none;fill:#e0e0e3;" text-anchor="start" >HTML5</text><rect x="0" y="4" width="16" height="12"  fill="#24CBE5"></rect></g><g class="highcharts-legend-item"  transform="translate(291.9375,3)"><text x="21" y="15" style="color:#e0e0e3;font-size:9pt;font-weight:bold;cursor:pointer;font-family:'unica one', sans-serif;text-transform:none;fill:#e0e0e3;" text-anchor="start" >CSS3</text><rect x="0" y="4" width="16" height="12"  fill="#64E572"></rect></g><g class="highcharts-legend-item"  transform="translate(356.875,3)"><text x="21" y="15" style="color:#e0e0e3;font-size:9pt;font-weight:bold;cursor:pointer;font-family:'unica one', sans-serif;text-transform:none;fill:#e0e0e3;" text-anchor="start" >SASS</text><rect x="0" y="4" width="16" height="12"  fill="#FF9655"></rect></g><g class="highcharts-legend-item"  transform="translate(421.546875,3)"><text x="21" y="15" style="color:#e0e0e3;font-size:9pt;font-weight:bold;cursor:pointer;font-family:'unica one', sans-serif;text-transform:none;fill:#e0e0e3;" text-anchor="start" ><tspan>JS / JQuery</tspan></text><rect x="0" y="4" width="16" height="12"  fill="#FFF263"></rect></g><g class="highcharts-legend-item"  transform="translate(8,17)"><text x="21" y="15" style="color:#e0e0e3;font-size:9pt;font-weight:bold;cursor:pointer;font-family:'unica one', sans-serif;text-transform:none;fill:#e0e0e3;" text-anchor="start" >PhoneGap</text><rect x="0" y="4" width="16" height="12"  fill="#6AF9C4"></rect></g></g></g></g><g class="highcharts-axis-labels highcharts-xaxis-labels" ><text x="316" style="color:#e0e0e3;cursor:default;font-size:11px;font-family:'unica one', sans-serif;text-transform:none;font-weight:normal;fill:#e0e0e3;" text-anchor="middle" transform="translate(0,0)" y="353" opacity="1"></text></g><g class="highcharts-axis-labels highcharts-yaxis-labels" ><text x="27" style="color:#e0e0e3;cursor:default;font-size:11px;font-family:'unica one', sans-serif;text-transform:none;font-weight:normal;fill:#e0e0e3;width:188px;text-overflow:clip;" text-anchor="end" transform="translate(0,0)" y="339" opacity="1">0</text><text x="27" style="color:#e0e0e3;cursor:default;font-size:11px;font-family:'unica one', sans-serif;text-transform:none;font-weight:normal;fill:#e0e0e3;width:188px;text-overflow:clip;" text-anchor="end" transform="translate(0,0)" y="291" opacity="1">20</text><text x="27" style="color:#e0e0e3;cursor:default;font-size:11px;font-family:'unica one', sans-serif;text-transform:none;font-weight:normal;fill:#e0e0e3;width:188px;text-overflow:clip;" text-anchor="end" transform="translate(0,0)" y="244" opacity="1">40</text><text x="27" style="color:#e0e0e3;cursor:default;font-size:11px;font-family:'unica one', sans-serif;text-transform:none;font-weight:normal;fill:#e0e0e3;width:188px;text-overflow:clip;" text-anchor="end" transform="translate(0,0)" y="196" opacity="1">60</text><text x="27" style="color:#e0e0e3;cursor:default;font-size:11px;font-family:'unica one', sans-serif;text-transform:none;font-weight:normal;fill:#e0e0e3;width:188px;text-overflow:clip;" text-anchor="end" transform="translate(0,0)" y="149" opacity="1">80</text><text x="27" style="color:#e0e0e3;cursor:default;font-size:11px;font-family:'unica one', sans-serif;text-transform:none;font-weight:normal;fill:#e0e0e3;width:188px;text-overflow:clip;" text-anchor="end" transform="translate(0,0)" y="101" opacity="1">100</text><text x="27" style="color:#e0e0e3;cursor:default;font-size:11px;font-family:'unica one', sans-serif;text-transform:none;font-weight:normal;fill:#e0e0e3;width:188px;text-overflow:clip;" text-anchor="end" transform="translate(0,0)" y="54" opacity="1">120</text></g><g class="highcharts-tooltip"  style="cursor:default;padding:0;pointer-events:none;white-space:nowrap;" transform="translate(0,-9999)"><path fill="rgb(0, 0, 0)" fill-opacity=" 0.85" d="M 3.5 0.5 L 13.5 0.5 C 16.5 0.5 16.5 0.5 16.5 3.5 L 16.5 13.5 C 16.5 16.5 16.5 16.5 13.5 16.5 L 3.5 16.5 C 0.5 16.5 0.5 16.5 0.5 13.5 L 0.5 3.5 C 0.5 0.5 0.5 0.5 3.5 0.5"></path><text x="8"  style="font-size:12px;color:#f0f0f0;fill:#f0f0f0;" y="20"></text></g><text x="590" text-anchor="end"  style="cursor:pointer;color:#666;font-size:9px;fill:#666;" y="395">meta-chart.com</text></svg>