<?xml version="1.0" standalone="no"?><!DOCTYPE svg PUBLIC "-//W3C//DTD SVG 1.1//EN" "http://www.w3.org/Graphics/SVG/1.1/DTD/svg11.dtd"><svg xmlns:xlink="http://www.w3.org/1999/xlink" version="1.1" style="font-family:'lucida grande', 'lucida sans unicode', arial, helvetica, sans-serif;font-size:12px;" xmlns="http://www.w3.org/2000/svg" width="600" height="400"><desc>Created with Highcharts 4.2.0</desc><defs><radialGradient cx="0.5" cy="0.3" r="0.7" id="highcharts-35"><stop offset="0" stop-color="#a1eac4" stop-opacity="1"></stop><stop offset="1" stop-color="rgb(85,158,120)" stop-opacity="1"></stop></radialGradient><radialGradient cx="0.5" cy="0.3" r="0.7" id="highcharts-36"><stop offset="0" stop-color="#f0b097" stop-opacity="1"></stop><stop offset="1" stop-color="rgb(164,100,75)" stop-opacity="1"></stop></radialGradient><clipPath id="highcharts-37"><rect x="0" y="0" width="580" height="338"></rect></clipPath><radialGradient cx="290" cy="105.39999999999999" r="222.6" id="highcharts-38" gradientUnits="userSpaceOnUse"><stop offset="0" stop-color="#a1eac4" stop-opacity="1"></stop><stop offset="1" stop-color="rgb(85,158,120)" stop-opacity="1"></stop></radialGradient><radialGradient cx="290" cy="105.39999999999999" r="222.6" id="highcharts-39" gradientUnits="userSpaceOnUse"><stop offset="0" stop-color="#f0b097" stop-opacity="1"></stop><stop offset="1" stop-color="rgb(164,100,75)" stop-opacity="1"></stop></radialGradient></defs><g class="highcharts-series-group" ><g class="highcharts-series highcharts-series-0"  transform="translate(10,10) scale(1 1)"><path fill="url(#highcharts-38)" d="M 289.9676159606125 10.000003297880568 A 159 159 0 1 1 270.30235172433464 326.7751648784059 L 290 169 A 0 0 0 1 0 290 169 Z" stroke="#FFFFFF" stroke-width="1" stroke-linejoin="round" transform="translate(10,1)"></path><path fill="url(#highcharts-39)" d="M 270.1445864345754 326.75538834583733 A 159 159 0 0 1 289.7791521898466 10.000153376662809 L 290 169 A 0 0 0 0 0 290 169 Z" stroke="#FFFFFF" stroke-width="1" stroke-linejoin="round" transform="translate(0,0)"></path></g><g class="highcharts-markers highcharts-series-0"  transform="translate(10,10) scale(1 1)"></g></g><g class="highcharts-data-labels highcharts-series-0"  visibility="visible" transform="translate(10,10) scale(1 1)" opacity="1"><path fill="none" d="M 483.62705167294337 180.86740819104025 C 478.62705167294337 180.86740819104025 470.6428378455172 180.36508403480576 459.6645438328062 179.6743883199833 L 448.6862498200952 178.98369260516085" stroke="url(#highcharts-35)" stroke-width="1"></path><path fill="none" d="M 96.37294832705666 157.13259180895977 C 101.37294832705666 157.13259180895977 109.35716215448284 157.63491596519427 120.33545616719383 158.32561168001672 L 131.31375017990482 159.01630739483917" stroke="url(#highcharts-36)" stroke-width="1"></path><g  style="cursor:pointer;" transform="translate(489,171)"><text x="5"  style="font-size:10px;font-weight:bold;font-family:'arial', sans-serif;color:#000000;text-shadow:0 0 6px #ffffff, 0 0 3px #ffffff;fill:#000000;text-rendering:geometricprecision;" y="15"><tspan>Front-End : 52 %</tspan></text></g><g  style="cursor:pointer;" transform="translate(4,147)"><text x="5"  style="font-size:10px;font-weight:bold;font-family:'arial', sans-serif;color:#000000;text-shadow:0 0 6px #ffffff, 0 0 3px #ffffff;fill:#000000;text-rendering:geometricprecision;" y="15"><tspan>Back-End : 48 %</tspan></text></g></g><g class="highcharts-legend"  transform="translate(204,360)"><g ><g><g class="highcharts-legend-item"  transform="translate(8,3)"><text x="21" style="color:#333;font-size:9pt;font-weight:normal;cursor:pointer;font-family:'lucida grande','lucida sans unicode',arial,helvetica,sans-serif;text-transform:none;fill:#333;" text-anchor="start"  y="15">Front-End</text><rect x="0" y="4" width="16" height="12"  fill="url(#highcharts-35)"></rect></g><g class="highcharts-legend-item"  transform="translate(108.09375,3)"><text x="21" y="15" style="color:#333;font-size:9pt;font-weight:normal;cursor:pointer;font-family:'lucida grande','lucida sans unicode',arial,helvetica,sans-serif;text-transform:none;fill:#333;" text-anchor="start" >Back-End</text><rect x="0" y="4" width="16" height="12"  fill="url(#highcharts-36)"></rect></g></g></g></g><g class="highcharts-tooltip"  style="cursor:default;padding:0;pointer-events:none;white-space:nowrap;" transform="translate(0,-9999)"><path fill="none" d="M 3.5 0.5 L 13.5 0.5 C 16.5 0.5 16.5 0.5 16.5 3.5 L 16.5 13.5 C 16.5 16.5 16.5 16.5 13.5 16.5 L 3.5 16.5 C 0.5 16.5 0.5 16.5 0.5 13.5 L 0.5 3.5 C 0.5 0.5 0.5 0.5 3.5 0.5"  stroke="black" stroke-opacity="0.049999999999999996" stroke-width="5" transform="translate(1, 1)"></path><path fill="none" d="M 3.5 0.5 L 13.5 0.5 C 16.5 0.5 16.5 0.5 16.5 3.5 L 16.5 13.5 C 16.5 16.5 16.5 16.5 13.5 16.5 L 3.5 16.5 C 0.5 16.5 0.5 16.5 0.5 13.5 L 0.5 3.5 C 0.5 0.5 0.5 0.5 3.5 0.5"  stroke="black" stroke-opacity="0.09999999999999999" stroke-width="3" transform="translate(1, 1)"></path><path fill="none" d="M 3.5 0.5 L 13.5 0.5 C 16.5 0.5 16.5 0.5 16.5 3.5 L 16.5 13.5 C 16.5 16.5 16.5 16.5 13.5 16.5 L 3.5 16.5 C 0.5 16.5 0.5 16.5 0.5 13.5 L 0.5 3.5 C 0.5 0.5 0.5 0.5 3.5 0.5"  stroke="black" stroke-opacity="0.15" stroke-width="1" transform="translate(1, 1)"></path><path fill="rgb(249, 249, 249)" fill-opacity=" .85" d="M 3.5 0.5 L 13.5 0.5 C 16.5 0.5 16.5 0.5 16.5 3.5 L 16.5 13.5 C 16.5 16.5 16.5 16.5 13.5 16.5 L 3.5 16.5 C 0.5 16.5 0.5 16.5 0.5 13.5 L 0.5 3.5 C 0.5 0.5 0.5 0.5 3.5 0.5"></path><text x="8"  style="font-size:12px;color:#000000;fill:#000000;" y="20"></text></g><text x="590" text-anchor="end"  style="cursor:pointer;color:#909090;font-size:9px;fill:#909090;" y="395">meta-chart.com</text></svg>