<?xml version="1.0" standalone="no"?><!DOCTYPE svg PUBLIC "-//W3C//DTD SVG 1.1//EN" "http://www.w3.org/Graphics/SVG/1.1/DTD/svg11.dtd"><svg xmlns:xlink="http://www.w3.org/1999/xlink" version="1.1" style="font-family:dosis, sans-serif;font-size:12px;" xmlns="http://www.w3.org/2000/svg" width="600" height="400"><desc>Created with Highcharts 4.2.0</desc><defs><clipPath id="highcharts-345"><rect x="1" y="1" width="546" height="292"></rect></clipPath></defs><rect x="42" y="40" width="548" height="294" fill="#ffffff"></rect><path fill="rgb(255, 255, 255)" fill-opacity=" .5" d="M 42 334.5 L 590 334.5 590 285.5 42 285.5"></path><path fill="rgb(255, 255, 255)" fill-opacity=" .5" d="M 42 236.5 L 590 236.5 590 187.5 42 187.5"></path><path fill="rgb(255, 255, 255)" fill-opacity=" .5" d="M 42 138.5 L 590 138.5 590 89.5 42 89.5"></path><g class="highcharts-grid" ></g><g class="highcharts-grid" ><path fill="none" d="M 42 334.5 L 590 334.5" stroke="#C0C0C0" stroke-width="1"  opacity="1"></path><path fill="none" d="M 42 285.5 L 590 285.5" stroke="#C0C0C0" stroke-width="1"  opacity="1"></path><path fill="none" d="M 42 236.5 L 590 236.5" stroke="#C0C0C0" stroke-width="1"  opacity="1"></path><path fill="none" d="M 42 187.5 L 590 187.5" stroke="#C0C0C0" stroke-width="1"  opacity="1"></path><path fill="none" d="M 42 138.5 L 590 138.5" stroke="#C0C0C0" stroke-width="1"  opacity="1"></path><path fill="none" d="M 42 89.5 L 590 89.5" stroke="#C0C0C0" stroke-width="1"  opacity="1"></path><path fill="none" d="M 42 39.5 L 590 39.5" stroke="#C0C0C0" stroke-width="1"  opacity="1"></path></g><rect x="42" y="40" width="548" height="294" strokeWidth="-2" stroke="#f9f9f9" stroke-width="2" fill="none" ></rect><g class="highcharts-axis" ><path fill="none" d="M 590.5 334 L 590.5 344" stroke="#C0D0E0" stroke-width="1" opacity="1"></path><path fill="none" d="M 41.5 334 L 41.5 344" stroke="#C0D0E0" stroke-width="1" opacity="1"></path><path fill="none" d="M 42 334.5 L 590 334.5" stroke="#C0D0E0" stroke-width="1" ></path></g><g class="highcharts-axis" ><path fill="none" d="M 42 334.5 L 32 334.5" stroke="#C0D0E0" stroke-width="1" opacity="1"></path><path fill="none" d="M 42 285.5 L 32 285.5" stroke="#C0D0E0" stroke-width="1" opacity="1"></path><path fill="none" d="M 42 236.5 L 32 236.5" stroke="#C0D0E0" stroke-width="1" opacity="1"></path><path fill="none" d="M 42 187.5 L 32 187.5" stroke="#C0D0E0" stroke-width="1" opacity="1"></path><path fill="none" d="M 42 138.5 L 32 138.5" stroke="#C0D0E0" stroke-width="1" opacity="1"></path><path fill="none" d="M 42 89.5 L 32 89.5" stroke="#C0D0E0" stroke-width="1" opacity="1"></path><path fill="none" d="M 42 39.5 L 32 39.5" stroke="#C0D0E0" stroke-width="1" opacity="1"></path><path fill="none" d="M 41.5 40 L 41.5 334" stroke="#C0D0E0" stroke-width="1" ></path></g><g class="highcharts-series-group" ><g class="highcharts-series highcharts-series-0"  transform="translate(42,40) scale(1 1)" clip-path="url(#highcharts-345)"><rect x="113.5" y="71.5" width="33" height="223" stroke="black" stroke-width="5" fill="none" rx="0" ry="0"  stroke-opacity="0.049999999999999996" transform="translate(1, 1)"></rect><rect x="113.5" y="71.5" width="33" height="223" stroke="black" stroke-width="3" fill="none" rx="0" ry="0"  stroke-opacity="0.09999999999999999" transform="translate(1, 1)"></rect><rect x="113.5" y="71.5" width="33" height="223" stroke="black" stroke-width="1" fill="none" rx="0" ry="0"  stroke-opacity="0.15" transform="translate(1, 1)"></rect><rect x="113.5" y="71.5" width="33" height="223" stroke="#FFFFFF" stroke-width="1" fill="#50B432" rx="0" ry="0"></rect></g><g class="highcharts-markers highcharts-series-0"  transform="translate(42,40) scale(1 1)" clip-path="none"></g><g class="highcharts-series highcharts-series-1"  transform="translate(42,40) scale(1 1)" clip-path="url(#highcharts-345)"><rect x="154.5" y="54.5" width="33" height="240" stroke="black" stroke-width="5" fill="none" rx="0" ry="0"  stroke-opacity="0.049999999999999996" transform="translate(1, 1)"></rect><rect x="154.5" y="54.5" width="33" height="240" stroke="black" stroke-width="3" fill="none" rx="0" ry="0"  stroke-opacity="0.09999999999999999" transform="translate(1, 1)"></rect><rect x="154.5" y="54.5" width="33" height="240" stroke="black" stroke-width="1" fill="none" rx="0" ry="0"  stroke-opacity="0.15" transform="translate(1, 1)"></rect><rect x="154.5" y="54.5" width="33" height="240" stroke="#FFFFFF" stroke-width="1" fill="#ED561B" rx="0" ry="0"></rect></g><g class="highcharts-markers highcharts-series-1"  transform="translate(42,40) scale(1 1)" clip-path="none"></g><g class="highcharts-series highcharts-series-2"  transform="translate(42,40) scale(1 1)" clip-path="url(#highcharts-345)"><rect x="195.5" y="73.5" width="33" height="221" stroke="black" stroke-width="5" fill="none" rx="0" ry="0"  stroke-opacity="0.049999999999999996" transform="translate(1, 1)"></rect><rect x="195.5" y="73.5" width="33" height="221" stroke="black" stroke-width="3" fill="none" rx="0" ry="0"  stroke-opacity="0.09999999999999999" transform="translate(1, 1)"></rect><rect x="195.5" y="73.5" width="33" height="221" stroke="black" stroke-width="1" fill="none" rx="0" ry="0"  stroke-opacity="0.15" transform="translate(1, 1)"></rect><rect x="195.5" y="73.5" width="33" height="221" stroke="#FFFFFF" stroke-width="1" fill="#DDDF00" rx="0" ry="0"></rect></g><g class="highcharts-markers highcharts-series-2"  transform="translate(42,40) scale(1 1)" clip-path="none"></g><g class="highcharts-series highcharts-series-3"  transform="translate(42,40) scale(1 1)" clip-path="url(#highcharts-345)"><rect x="236.5" y="51.5" width="33" height="243" stroke="black" stroke-width="5" fill="none" rx="0" ry="0"  stroke-opacity="0.049999999999999996" transform="translate(1, 1)"></rect><rect x="236.5" y="51.5" width="33" height="243" stroke="black" stroke-width="3" fill="none" rx="0" ry="0"  stroke-opacity="0.09999999999999999" transform="translate(1, 1)"></rect><rect x="236.5" y="51.5" width="33" height="243" stroke="black" stroke-width="1" fill="none" rx="0" ry="0"  stroke-opacity="0.15" transform="translate(1, 1)"></rect><rect x="236.5" y="51.5" width="33" height="243" stroke="#FFFFFF" stroke-width="1" fill="#24CBE5" rx="0" ry="0"></rect></g><g class="highcharts-markers highcharts-series-3"  transform="translate(42,40) scale(1 1)" clip-path="none"></g><g class="highcharts-series highcharts-series-4"  transform="translate(42,40) scale(1 1)" clip-path="url(#highcharts-345)"><rect x="277.5" y="51.5" width="33" height="243" stroke="black" stroke-width="5" fill="none" rx="0" ry="0"  stroke-opacity="0.049999999999999996" transform="translate(1, 1)"></rect><rect x="277.5" y="51.5" width="33" height="243" stroke="black" stroke-width="3" fill="none" rx="0" ry="0"  stroke-opacity="0.09999999999999999" transform="translate(1, 1)"></rect><rect x="277.5" y="51.5" width="33" height="243" stroke="black" stroke-width="1" fill="none" rx="0" ry="0"  stroke-opacity="0.15" transform="translate(1, 1)"></rect><rect x="277.5" y="51.5" width="33" height="243" stroke="#FFFFFF" stroke-width="1" fill="#64E572" rx="0" ry="0"></rect></g><g class="highcharts-markers highcharts-series-4"  transform="translate(42,40) scale(1 1)" clip-path="none"></g><g class="highcharts-series highcharts-series-5"  transform="translate(42,40) scale(1 1)" clip-path="url(#highcharts-345)"><rect x="318.5" y="51.5" width="33" height="243" stroke="black" stroke-width="5" fill="none" rx="0" ry="0"  stroke-opacity="0.049999999999999996" transform="translate(1, 1)"></rect><rect x="318.5" y="51.5" width="33" height="243" stroke="black" stroke-width="3" fill="none" rx="0" ry="0"  stroke-opacity="0.09999999999999999" transform="translate(1, 1)"></rect><rect x="318.5" y="51.5" width="33" height="243" stroke="black" stroke-width="1" fill="none" rx="0" ry="0"  stroke-opacity="0.15" transform="translate(1, 1)"></rect><rect x="318.5" y="51.5" width="33" height="243" stroke="#FFFFFF" stroke-width="1" fill="#FF9655" rx="0" ry="0"></rect></g><g class="highcharts-markers highcharts-series-5"  transform="translate(42,40) scale(1 1)" clip-path="none"></g><g class="highcharts-series highcharts-series-6"  transform="translate(42,40) scale(1 1)" clip-path="url(#highcharts-345)"><rect x="359.5" y="73.5" width="33" height="221" stroke="black" stroke-width="5" fill="none" rx="0" ry="0"  stroke-opacity="0.049999999999999996" transform="translate(1, 1)"></rect><rect x="359.5" y="73.5" width="33" height="221" stroke="black" stroke-width="3" fill="none" rx="0" ry="0"  stroke-opacity="0.09999999999999999" transform="translate(1, 1)"></rect><rect x="359.5" y="73.5" width="33" height="221" stroke="black" stroke-width="1" fill="none" rx="0" ry="0"  stroke-opacity="0.15" transform="translate(1, 1)"></rect><rect x="359.5" y="73.5" width="33" height="221" stroke="#FFFFFF" stroke-width="1" fill="#FFF263" rx="0" ry="0"></rect></g><g class="highcharts-markers highcharts-series-6"  transform="translate(42,40) scale(1 1)" clip-path="none"></g><g class="highcharts-series highcharts-series-7"  transform="translate(42,40) scale(1 1)" clip-path="url(#highcharts-345)"><rect x="400.5" y="123.5" width="33" height="171" stroke="black" stroke-width="5" fill="none" rx="0" ry="0"  stroke-opacity="0.049999999999999996" transform="translate(1, 1)"></rect><rect x="400.5" y="123.5" width="33" height="171" stroke="black" stroke-width="3" fill="none" rx="0" ry="0"  stroke-opacity="0.09999999999999999" transform="translate(1, 1)"></rect><rect x="400.5" y="123.5" width="33" height="171" stroke="black" stroke-width="1" fill="none" rx="0" ry="0"  stroke-opacity="0.15" transform="translate(1, 1)"></rect><rect x="400.5" y="123.5" width="33" height="171" stroke="#FFFFFF" stroke-width="1" fill="#6AF9C4" rx="0" ry="0"></rect></g><g class="highcharts-markers highcharts-series-7"  transform="translate(42,40) scale(1 1)" clip-path="none"></g></g><text x="300" text-anchor="middle" class="highcharts-title"  style="color:#000000;font-size:12px;font-family:'verdana', sans-serif;text-transform:none;font-weight:bold;fill:#000000;width:536px;" y="19"><tspan>TECH SKILLS</tspan></text><g class="highcharts-data-labels highcharts-series-0"  visibility="visible" transform="translate(42,40) scale(1 1)" opacity="1"><g  style="cursor:pointer;" transform="translate(118,50)"><text x="5"  style="font-size:10px;font-weight:bold;font-family:'verdana', sans-serif;color:#333;text-shadow:0 0 6px #ffffff, 0 0 3px #ffffff;fill:#333;text-rendering:geometricprecision;" y="15"><tspan>91 </tspan></text></g></g><g class="highcharts-data-labels highcharts-series-1"  visibility="visible" transform="translate(42,40) scale(1 1)" opacity="1"><g  style="cursor:pointer;" transform="translate(159,33)"><text x="5"  style="font-size:10px;font-weight:bold;font-family:'verdana', sans-serif;color:#333;text-shadow:0 0 6px #ffffff, 0 0 3px #ffffff;fill:#333;text-rendering:geometricprecision;" y="15"><tspan>98 </tspan></text></g></g><g class="highcharts-data-labels highcharts-series-2"  visibility="visible" transform="translate(42,40) scale(1 1)" opacity="1"><g  style="cursor:pointer;" transform="translate(200,52)"><text x="5"  style="font-size:10px;font-weight:bold;font-family:'verdana', sans-serif;color:#333;text-shadow:0 0 6px #ffffff, 0 0 3px #ffffff;fill:#333;text-rendering:geometricprecision;" y="15"><tspan>90 </tspan></text></g></g><g class="highcharts-data-labels highcharts-series-3"  visibility="visible" transform="translate(42,40) scale(1 1)" opacity="1"><g  style="cursor:pointer;" transform="translate(241,30)"><text x="5"  style="font-size:10px;font-weight:bold;font-family:'verdana', sans-serif;color:#333;text-shadow:0 0 6px #ffffff, 0 0 3px #ffffff;fill:#333;text-rendering:geometricprecision;" y="15"><tspan>99 </tspan></text></g></g><g class="highcharts-data-labels highcharts-series-4"  visibility="visible" transform="translate(42,40) scale(1 1)" opacity="1"><g  style="cursor:pointer;" transform="translate(282,30)"><text x="5"  style="font-size:10px;font-weight:bold;font-family:'verdana', sans-serif;color:#333;text-shadow:0 0 6px #ffffff, 0 0 3px #ffffff;fill:#333;text-rendering:geometricprecision;" y="15"><tspan>99 </tspan></text></g></g><g class="highcharts-data-labels highcharts-series-5"  visibility="visible" transform="translate(42,40) scale(1 1)" opacity="1"><g  style="cursor:pointer;" transform="translate(323,30)"><text x="5"  style="font-size:10px;font-weight:bold;font-family:'verdana', sans-serif;color:#333;text-shadow:0 0 6px #ffffff, 0 0 3px #ffffff;fill:#333;text-rendering:geometricprecision;" y="15"><tspan>99 </tspan></text></g></g><g class="highcharts-data-labels highcharts-series-6"  visibility="visible" transform="translate(42,40) scale(1 1)" opacity="1"><g  style="cursor:pointer;" transform="translate(364,52)"><text x="5"  style="font-size:10px;font-weight:bold;font-family:'verdana', sans-serif;color:#333;text-shadow:0 0 6px #ffffff, 0 0 3px #ffffff;fill:#333;text-rendering:geometricprecision;" y="15"><tspan>90 </tspan></text></g></g><g class="highcharts-data-labels highcharts-series-7"  visibility="visible" transform="translate(42,40) scale(1 1)" opacity="1"><g  style="cursor:pointer;" transform="translate(405,102)"><text x="5"  style="font-size:10px;font-weight:bold;font-family:'verdana', sans-serif;color:#333;text-shadow:0 0 6px #ffffff, 0 0 3px #ffffff;fill:#333;text-rendering:geometricprecision;" y="15"><tspan>70 </tspan></text></g></g><g class="highcharts-legend"  transform="translate(18,346)"><g ><g><g class="highcharts-legend-item"  transform="translate(8,3)"><text x="21" style="color:#333;font-size:9pt;font-weight:normal;cursor:pointer;font-family:'lucida grande','lucida sans unicode',arial,helvetica,sans-serif;text-transform:none;fill:#333;" text-anchor="start"  y="15">PHP</text><rect x="0" y="4" width="16" height="12"  fill="#50B432"></rect></g><g class="highcharts-legend-item"  transform="translate(71.078125,3)"><text x="21" y="15" style="color:#333;font-size:9pt;font-weight:normal;cursor:pointer;font-family:'lucida grande','lucida sans unicode',arial,helvetica,sans-serif;text-transform:none;fill:#333;" text-anchor="start" >MYSQL</text><rect x="0" y="4" width="16" height="12"  fill="#ED561B"></rect></g><g class="highcharts-legend-item"  transform="translate(152.0625,3)"><text x="21" y="15" style="color:#333;font-size:9pt;font-weight:normal;cursor:pointer;font-family:'lucida grande','lucida sans unicode',arial,helvetica,sans-serif;text-transform:none;fill:#333;" text-anchor="start" >LARAVEL5</text><rect x="0" y="4" width="16" height="12"  fill="#DDDF00"></rect></g><g class="highcharts-legend-item"  transform="translate(251.9375,3)"><text x="21" y="15" style="color:#333;font-size:9pt;font-weight:normal;cursor:pointer;font-family:'lucida grande','lucida sans unicode',arial,helvetica,sans-serif;text-transform:none;fill:#333;" text-anchor="start" >HTML5</text><rect x="0" y="4" width="16" height="12"  fill="#24CBE5"></rect></g><g class="highcharts-legend-item"  transform="translate(333.65625,3)"><text x="21" y="15" style="color:#333;font-size:9pt;font-weight:normal;cursor:pointer;font-family:'lucida grande','lucida sans unicode',arial,helvetica,sans-serif;text-transform:none;fill:#333;" text-anchor="start" >CSS3</text><rect x="0" y="4" width="16" height="12"  fill="#64E572"></rect></g><g class="highcharts-legend-item"  transform="translate(403.46875,3)"><text x="21" y="15" style="color:#333;font-size:9pt;font-weight:normal;cursor:pointer;font-family:'lucida grande','lucida sans unicode',arial,helvetica,sans-serif;text-transform:none;fill:#333;" text-anchor="start" >SASS</text><rect x="0" y="4" width="16" height="12"  fill="#FF9655"></rect></g><g class="highcharts-legend-item"  transform="translate(472.125,3)"><text x="21" y="15" style="color:#333;font-size:9pt;font-weight:normal;cursor:pointer;font-family:'lucida grande','lucida sans unicode',arial,helvetica,sans-serif;text-transform:none;fill:#333;" text-anchor="start" ><tspan>JS / JQuery</tspan></text><rect x="0" y="4" width="16" height="12"  fill="#FFF263"></rect></g><g class="highcharts-legend-item"  transform="translate(8,17)"><text x="21" y="15" style="color:#333;font-size:9pt;font-weight:normal;cursor:pointer;font-family:'lucida grande','lucida sans unicode',arial,helvetica,sans-serif;text-transform:none;fill:#333;" text-anchor="start" >PhoneGap</text><rect x="0" y="4" width="16" height="12"  fill="#6AF9C4"></rect></g></g></g></g><g class="highcharts-axis-labels highcharts-xaxis-labels" ><text x="316" style="color:#000000;cursor:default;font-size:10px;font-family:'arial', sans-serif;text-transform:none;font-weight:normal;fill:#000000;" text-anchor="middle" transform="translate(0,0)" y="352" opacity="1"></text></g><g class="highcharts-axis-labels highcharts-yaxis-labels" ><text x="27" style="color:#000000;cursor:default;font-size:10px;font-family:'arial', sans-serif;text-transform:none;font-weight:normal;fill:#000000;width:188px;text-overflow:clip;" text-anchor="end" transform="translate(0,0)" y="339" opacity="1">0</text><text x="27" style="color:#000000;cursor:default;font-size:10px;font-family:'arial', sans-serif;text-transform:none;font-weight:normal;fill:#000000;width:188px;text-overflow:clip;" text-anchor="end" transform="translate(0,0)" y="290" opacity="1">20</text><text x="27" style="color:#000000;cursor:default;font-size:10px;font-family:'arial', sans-serif;text-transform:none;font-weight:normal;fill:#000000;width:188px;text-overflow:clip;" text-anchor="end" transform="translate(0,0)" y="241" opacity="1">40</text><text x="27" style="color:#000000;cursor:default;font-size:10px;font-family:'arial', sans-serif;text-transform:none;font-weight:normal;fill:#000000;width:188px;text-overflow:clip;" text-anchor="end" transform="translate(0,0)" y="192" opacity="1">60</text><text x="27" style="color:#000000;cursor:default;font-size:10px;font-family:'arial', sans-serif;text-transform:none;font-weight:normal;fill:#000000;width:188px;text-overflow:clip;" text-anchor="end" transform="translate(0,0)" y="143" opacity="1">80</text><text x="27" style="color:#000000;cursor:default;font-size:10px;font-family:'arial', sans-serif;text-transform:none;font-weight:normal;fill:#000000;width:188px;text-overflow:clip;" text-anchor="end" transform="translate(0,0)" y="93" opacity="1">100</text><text x="27" style="color:#000000;cursor:default;font-size:10px;font-family:'arial', sans-serif;text-transform:none;font-weight:normal;fill:#000000;width:188px;text-overflow:clip;" text-anchor="end" transform="translate(0,0)" y="45" opacity="1">120</text></g><g class="highcharts-tooltip"  style="cursor:default;padding:0;pointer-events:none;white-space:nowrap;" transform="translate(0,-9999)"><path fill="rgb(255, 255, 255)" fill-opacity=" 0.85" d="M 3.5 0.5 L 13.5 0.5 C 16.5 0.5 16.5 0.5 16.5 3.5 L 16.5 13.5 C 16.5 16.5 16.5 16.5 13.5 16.5 L 3.5 16.5 C 0.5 16.5 0.5 16.5 0.5 13.5 L 0.5 3.5 C 0.5 0.5 0.5 0.5 3.5 0.5"></path><text x="8"  style="font-size:12px;color:#000000;fill:#000000;" y="20"></text></g><text x="590" text-anchor="end"  style="cursor:pointer;color:#666;font-size:9px;fill:#666;" y="395">meta-chart.com</text></svg>